<svg width="51" height="50" viewBox="0 0 51 50" fill="none" xmlns="http://www.w3.org/2000/svg">
<path d="M50.2947 25C50.2947 38.8071 39.1018 50 25.2947 50C11.4876 50 0.294678 38.8071 0.294678 25C0.294678 11.1929 11.4876 0 25.2947 0C39.1018 0 50.2947 11.1929 50.2947 25Z" fill="url(#paint0_linear_2_68)"/>
<path d="M37.063 14.0777C34.9096 13.1092 32.5781 12.4062 30.1494 12.0001C30.1282 11.9994 30.107 12.0033 30.0874 12.0114C30.0678 12.0195 30.0503 12.0316 30.0361 12.0469C29.7447 12.5624 29.4047 13.2341 29.178 13.7496C26.602 13.3747 23.9823 13.3747 21.4064 13.7496C21.1797 13.2185 20.8397 12.5624 20.532 12.0469C20.5159 12.0157 20.4673 12.0001 20.4187 12.0001C17.9901 12.4062 15.6748 13.1092 13.5052 14.0777C13.489 14.0777 13.4728 14.0933 13.4566 14.1089C9.05268 20.4666 7.83836 26.6525 8.43742 32.7759C8.43742 32.8071 8.45361 32.8384 8.486 32.854C11.4004 34.916 14.2014 36.1656 16.97 36.9935C17.0186 37.0092 17.0672 36.9935 17.0834 36.9623C17.731 36.1031 18.3139 35.1971 18.8158 34.2442C18.8482 34.1818 18.8158 34.1193 18.751 34.1037C17.8282 33.76 16.9538 33.3539 16.0957 32.8852C16.031 32.854 16.031 32.7603 16.0795 32.7134C16.2576 32.5884 16.4357 32.4478 16.6138 32.3229C16.6462 32.2916 16.6948 32.2916 16.7272 32.3073C22.2969 34.7597 28.3037 34.7597 33.8086 32.3073C33.841 32.2916 33.8895 32.2916 33.9219 32.3229C34.1 32.4635 34.2781 32.5884 34.4562 32.729C34.521 32.7759 34.521 32.8696 34.44 32.9008C33.5981 33.3851 32.7076 33.7756 31.7847 34.1193C31.72 34.1349 31.7038 34.213 31.72 34.2599C32.2381 35.2127 32.8209 36.1188 33.4524 36.9779C33.501 36.9935 33.5495 37.0092 33.5981 36.9935C36.3829 36.1656 39.184 34.916 42.0983 32.854C42.1307 32.8384 42.1469 32.8071 42.1469 32.7759C42.8593 25.6996 40.965 19.5606 37.1277 14.1089C37.1115 14.0933 37.0954 14.0777 37.063 14.0777ZM19.6577 29.0425C17.9901 29.0425 16.5976 27.5585 16.5976 25.7309C16.5976 23.9032 17.9577 22.4192 19.6577 22.4192C21.374 22.4192 22.734 23.9188 22.7178 25.7309C22.7178 27.5585 21.3578 29.0425 19.6577 29.0425ZM30.9428 29.0425C29.2751 29.0425 27.8827 27.5585 27.8827 25.7309C27.8827 23.9032 29.2428 22.4192 30.9428 22.4192C32.659 22.4192 34.0191 23.9188 34.0029 25.7309C34.0029 27.5585 32.659 29.0425 30.9428 29.0425Z" fill="white"/>
<defs>
<linearGradient id="paint0_linear_2_68" x1="25.2947" y1="0" x2="25.2947" y2="50" gradientUnits="userSpaceOnUse">
<stop stop-color="#5562F5"/>
<stop offset="1" stop-color="#5662F6"/>
</linearGradient>
</defs>
</svg>
