<svg width="53" height="53" viewBox="0 0 53 53" fill="none" xmlns="http://www.w3.org/2000/svg">
<g clip-path="url(#clip0_2_27)">
<path d="M50.1191 25C50.1191 38.8071 38.9263 50 25.1191 50C11.312 50 0.119141 38.8071 0.119141 25C0.119141 11.1929 11.312 0 25.1191 0C38.9263 0 50.1191 11.1929 50.1191 25Z" fill="url(#paint0_linear_2_27)"/>
<path d="M50.1191 25C50.1191 38.8071 38.9263 50 25.1191 50C11.312 50 0.119141 38.8071 0.119141 25C0.119141 11.1929 11.312 0 25.1191 0C38.9263 0 50.1191 11.1929 50.1191 25Z" fill="url(#paint1_linear_2_27)"/>
<path d="M21.1191 32.5V49.5C21.1191 49.7761 21.343 50 21.6191 50H28.6191C28.8953 50 29.1191 49.7761 29.1191 49.5V32.5C29.1191 32.2239 29.343 32 29.6191 32H34.6191C34.8953 32 35.1191 31.7761 35.1191 31.5V25.5C35.1191 25.2239 34.8953 25 34.6191 25H29.6191C29.343 25 29.1191 24.7765 29.1191 24.5003V20C29.1191 18 31.6191 17 32.6191 17H35.6191C35.8953 17 36.1191 16.7761 36.1191 16.5V10.5C36.1191 10.2239 35.8954 10 35.6192 10H29.1191C24.3191 10 21.1191 15 21.1191 18V24.5C21.1191 24.7761 20.8953 25 20.6191 25H15.6191C15.343 25 15.1191 25.2239 15.1191 25.5V31.5C15.1191 31.7761 15.343 32 15.6191 32H20.6191C20.8953 32 21.1191 32.2239 21.1191 32.5Z" fill="white"/>
</g>
<defs>
<linearGradient id="paint0_linear_2_27" x1="25.1191" y1="0" x2="25.1191" y2="50" gradientUnits="userSpaceOnUse">
<stop stop-color="#18ACFE"/>
<stop offset="1" stop-color="#0165E1"/>
</linearGradient>
<linearGradient id="paint1_linear_2_27" x1="25.1191" y1="0" x2="25.1191" y2="50" gradientUnits="userSpaceOnUse">
<stop stop-color="#18ACFE"/>
<stop offset="1" stop-color="#0165E1"/>
</linearGradient>
<clipPath id="clip0_2_27">
<rect width="52.765" height="52.765" fill="white" transform="translate(0.119141)"/>
</clipPath>
</defs>
</svg>
