<svg width="54" height="53" viewBox="0 0 54 53" fill="none" xmlns="http://www.w3.org/2000/svg">
<path d="M2.0564 8C2.0564 4.13401 5.1904 1 9.0564 1H45.0564C48.9224 1 52.0564 4.13401 52.0564 8V44C52.0564 47.866 48.9224 51 45.0564 51H9.0564C5.1904 51 2.0564 47.866 2.0564 44V8Z" fill="#0077B5"/>
<path d="M20.0564 14.5C20.0564 16.9853 18.0417 19 15.5564 19C13.0711 19 11.0564 16.9853 11.0564 14.5C11.0564 12.0147 13.0711 10 15.5564 10C18.0417 10 20.0564 12.0147 20.0564 14.5Z" fill="white"/>
<path d="M12.0564 22C12.0564 21.4477 12.5041 21 13.0564 21H18.0564C18.6087 21 19.0564 21.4477 19.0564 22V41C19.0564 41.5523 18.6087 42 18.0564 42H13.0564C12.5041 42 12.0564 41.5523 12.0564 41V22Z" fill="white"/>
<path d="M23.0564 21L27.5564 21C28.1087 21 28.5564 21.4477 28.5564 22V23C30.5564 20.5 34.2231 20.3333 36.0564 20.5C41.7718 21.0195 42.7231 26.8333 42.5564 30L42.5564 41C42.5564 41.5523 42.1087 42 41.5564 42L37.0564 42C36.5041 42 36.0564 41.5523 36.0564 41V30C35.8897 28.6667 34.9564 26 32.5564 26C30.1564 26 28.7231 29 28.5564 30V41C28.5564 41.5523 28.1087 42 27.5564 42L23.0564 42C22.5041 42 22.0564 41.5523 22.0564 41V22C22.0564 21.4477 22.5041 21 23.0564 21Z" fill="white"/>
</svg>
