<svg width="100" height="100" viewBox="0 0 218 56" fill="none" xmlns="http://www.w3.org/2000/svg">
<path d="M131.451 0.537613L126.171 43.1885L125.071 48.3952C125.181 48.3952 125.401 48.3952 125.511 48.3952C131.121 48.2845 135.191 43.2993 135.961 37.0955L139.04 12.6128C139.92 5.19046 135.521 0.537613 131.451 0.537613Z" fill="aquamarine"/>
<path d="M125.621 14.3853H119.351V14.053C119.791 9.95406 120.781 7.84921 123.971 7.40609C126.171 7.18453 127.051 6.07672 127.381 4.85813C127.601 3.86109 128.151 0.537621 128.151 0.537621C115.611 0.42684 111.651 5.85515 110.661 14.1638V14.3853H110.551C108.571 14.3853 106.261 16.7117 105.931 19.5921L105.821 20.6999H110.001L106.481 49.8354L105.381 55.0421C105.491 55.0421 105.711 55.0421 105.821 55.0421C111.651 54.8206 115.391 50.1678 116.271 43.4101L119.021 20.5891H121.001C122.981 20.5891 125.181 18.595 125.621 15.3824V14.3853Z" fill="aquamarine"/>
<path d="M33.9921 23.4694C33.9921 23.4694 30.3622 34.8799 30.0322 35.8769C29.9222 34.8799 27.2823 14.3853 27.2823 14.3853C21.1224 14.3853 17.8224 18.8166 16.0624 23.4694C16.0624 23.4694 11.6625 34.8799 11.3325 35.8769C11.3325 34.9907 10.6725 23.5802 10.6725 23.5802C10.3425 17.8196 5.06262 14.3853 0.88269 14.3853L5.94258 45.5149C12.4325 45.5149 15.8424 41.0837 17.7124 36.4309C17.7124 36.4309 21.5624 26.3497 21.7824 25.9066C21.7824 26.3497 24.5323 45.5149 24.5323 45.5149C31.0222 45.5149 34.5421 41.416 36.4121 36.874L45.542 14.3853C39.1621 14.3853 35.7521 18.8166 33.9921 23.4694Z" fill="white"/>
<path d="M94.6012 13.6099C90.6413 13.6099 87.5613 15.8255 85.0314 19.0381L87.3413 0.316071C82.0614 0.316071 77.7715 4.96889 76.8915 11.8373L72.8216 45.1826C75.9015 45.1826 79.0915 44.2963 80.8514 42.0807C82.3914 44.0747 84.7014 45.7365 88.2213 45.7365C97.1312 45.7365 103.291 35.323 103.291 25.4635C103.181 16.4902 98.8912 13.6099 94.6012 13.6099ZM93.7212 29.6732C92.7313 35.1015 89.7613 38.868 86.7913 38.868C83.8214 38.868 82.6114 37.5387 82.6114 37.5387C83.1614 32.7751 83.4914 29.7839 84.5914 27.236C85.6914 24.688 88.2213 20.6999 90.8613 20.6999C93.5012 20.6999 94.7112 24.2449 93.7212 29.6732Z" fill="white"/>
<path d="M70.8416 21.8077C70.8416 17.9303 67.1016 13.7206 60.5017 13.7206C53.1318 13.7206 45.102 19.1489 43.892 30.0055C42.682 40.9729 49.3919 45.7365 56.2118 45.7365C63.0317 45.7365 66.5517 43.0777 70.1816 39.5327C67.1016 35.5446 63.0317 37.4279 62.2617 37.7602C61.3817 38.2033 60.2818 38.7572 58.0818 38.7572C55.4418 38.7572 52.8018 37.5386 52.8018 32.6643C69.5216 31.0025 70.8416 25.685 70.8416 21.8077ZM62.4817 22.4724C62.3717 23.691 61.9317 25.7958 53.3518 26.9036C55.1118 20.4783 58.5218 20.0352 60.1718 20.0352C61.7117 19.9244 62.5917 21.143 62.4817 22.4724Z" fill="white"/>
<path d="M205.919 23.4694C205.919 23.4694 202.289 34.8799 201.959 35.8769C201.849 34.8799 199.21 14.3853 199.21 14.3853C193.05 14.3853 189.75 18.8166 187.99 23.4694C187.99 23.4694 183.59 34.8799 183.26 35.8769C183.26 34.9907 182.6 23.5802 182.6 23.5802C182.27 17.8196 176.99 14.3853 172.81 14.3853L177.87 45.5149C184.36 45.5149 187.77 41.0837 189.64 36.4309C189.64 36.4309 193.49 26.3497 193.71 25.9066C193.71 26.3497 196.46 45.5149 196.46 45.5149C202.949 45.5149 206.469 41.416 208.339 36.874L217.469 14.3853C210.979 14.3853 207.569 18.8166 205.919 23.4694Z" fill="aquamarine"/>
<path d="M158.07 13.8314C150.92 13.8314 144.1 19.1489 142.01 27.5683C139.92 35.9877 143.11 45.8473 153.67 45.8473C164.23 45.8473 170.39 35.5446 170.39 26.9036C170.28 18.3735 164.56 13.8314 158.07 13.8314ZM160.93 29.4516C160.6 33.2182 158.95 38.9788 154.33 38.9788C149.71 38.9788 150.37 32.2211 150.81 29.0085C151.25 25.5742 153.23 20.6999 157.3 20.6999C161.04 20.6999 161.37 25.1311 160.93 29.4516Z" fill="aquamarine"/>
</svg>
